<svg xmlns="http://www.w3.org/2000/svg" viewBox="0 0 1200 800" role="img" aria-labelledby="title desc"><title id="title">Projeto de sistema web</title><desc id="desc">Dashboard abstrato de uma aplicação digital.</desc><defs><linearGradient id="bg" x1="0" y1="0" x2="1" y2="1"><stop stop-color="#0b080d"/><stop offset="1" stop-color="#52172e"/></linearGradient></defs><rect width="1200" height="800" fill="url(#bg)"/><rect x="100" y="105" width="1000" height="590" rx="34" fill="#100a12" stroke="#d94a5f" stroke-opacity=".45"/><rect x="155" y="165" width="210" height="470" rx="18" fill="#24121e"/><rect x="410" y="165" width="635" height="90" rx="18" fill="#21111c"/><rect x="410" y="295" width="300" height="150" rx="18" fill="#3b1426"/><rect x="745" y="295" width="300" height="150" rx="18" fill="#24121e"/><rect x="410" y="485" width="635" height="150" rx="18" fill="#180e18"/><path d="M455 590c55-85 95-20 150-80s100 15 145-55 105 25 160-45" fill="none" stroke="#f25c76" stroke-width="8"/><rect x="190" y="210" width="125" height="18" rx="9" fill="#d94a5f"/><rect x="190" y="270" width="100" height="12" rx="6" fill="#7a2c42"/><rect x="190" y="310" width="115" height="12" rx="6" fill="#7a2c42"/></svg>